<!DOCTYPE svg PUBLIC "-//W3C//DTD SVG 1.1//EN" "http://www.w3.org/Graphics/SVG/1.1/DTD/svg11.dtd">
<!-- Uploaded to: SVG Repo, www.svgrepo.com, Transformed by: SVG Repo Mixer Tools -->
<svg fill="#1a8c53" width="70px" height="70px" viewBox="-10 -10 120.00 120.00" xmlns="http://www.w3.org/2000/svg" stroke="#1a8c53">
<g id="SVGRepo_bgCarrier" stroke-width="0"/>
<g id="SVGRepo_tracerCarrier" stroke-linecap="round" stroke-linejoin="round"/>
<g id="SVGRepo_iconCarrier">
<path d="M37.2,30.1h4a.94.94,0,0,0,1-1v-3H58v3a.94.94,0,0,0,1,1h4a.94.94,0,0,0,1-1v-3a6,6,0,0,0-6-6H42.2a6,6,0,0,0-6,6v3A.94.94,0,0,0,37.2,30.1Z"/>
<path d="M74,36.1H26.2a6,6,0,0,0-6,6V73.9a6,6,0,0,0,6,6H74a6,6,0,0,0,6-6V42.1A6.15,6.15,0,0,0,74,36.1ZM65.3,52.2,47.9,69.6a3.38,3.38,0,0,1-4.8,0l-8.4-8.4a1.63,1.63,0,0,1,0-2.4l2.4-2.4a1.63,1.63,0,0,1,2.4,0l6,6,15-15a1.63,1.63,0,0,1,2.4,0l2.4,2.4A1.82,1.82,0,0,1,65.3,52.2Z"/>
</g>
</svg>